<svg xmlns="http://www.w3.org/2000/svg" role="img" aria-labelledby="title desc" width="1140" height="760" viewBox="0 0 1140 760" preserveAspectRatio="xMidYMid meet"><title id="title">Comment déployer une analyse IA des avis à grande échelle tout en gardant un contrôle humain ?</title><desc id="desc">Illustration éditoriale dédiée à l’article : Comment déployer une analyse IA des avis à grande échelle tout en gardant un contrôle humain ?</desc><rect width="1140" height="760" fill="#FFF8F1"/><rect x="35" y="35" width="1070" height="690" rx="34" fill="#FCE8D4" stroke="#F3C49E" stroke-width="2"/><path d="M80 590C240 540 300 610 450 550S760 485 1060 560" stroke="#C46A2B" stroke-width="3" opacity=".15" fill="none"/><rect x="165" y="150" width="120" height="80" rx="15" fill="#fff" stroke="#C46A2B" stroke-width="2.5"/><circle cx="197" cy="180" r="7" fill="#C46A2B"/><rect x="215" y="175" width="45" height="7" rx="3" fill="#F3C49E"/><rect x="197" y="198" width="70" height="6" rx="3" fill="#F3C49E"/><rect x="510" y="150" width="120" height="80" rx="15" fill="#fff" stroke="#C46A2B" stroke-width="2.5"/><circle cx="542" cy="180" r="7" fill="#C46A2B"/><rect x="560" y="175" width="45" height="7" rx="3" fill="#F3C49E"/><rect x="542" y="198" width="70" height="6" rx="3" fill="#F3C49E"/><rect x="855" y="150" width="120" height="80" rx="15" fill="#fff" stroke="#C46A2B" stroke-width="2.5"/><circle cx="887" cy="180" r="7" fill="#C46A2B"/><rect x="905" y="175" width="45" height="7" rx="3" fill="#F3C49E"/><rect x="887" y="198" width="70" height="6" rx="3" fill="#F3C49E"/><rect x="165" y="435" width="120" height="80" rx="15" fill="#fff" stroke="#C46A2B" stroke-width="2.5"/><circle cx="197" cy="465" r="7" fill="#C46A2B"/><rect x="215" y="460" width="45" height="7" rx="3" fill="#F3C49E"/><rect x="197" y="483" width="70" height="6" rx="3" fill="#F3C49E"/><rect x="510" y="435" width="120" height="80" rx="15" fill="#fff" stroke="#C46A2B" stroke-width="2.5"/><circle cx="542" cy="465" r="7" fill="#C46A2B"/><rect x="560" y="460" width="45" height="7" rx="3" fill="#F3C49E"/><rect x="542" y="483" width="70" height="6" rx="3" fill="#F3C49E"/><rect x="855" y="435" width="120" height="80" rx="15" fill="#fff" stroke="#C46A2B" stroke-width="2.5"/><circle cx="887" cy="465" r="7" fill="#C46A2B"/><rect x="905" y="460" width="45" height="7" rx="3" fill="#F3C49E"/><rect x="887" y="483" width="70" height="6" rx="3" fill="#F3C49E"/><path d="M285 190h225m120 0h225M225 230v205m345-205v205m345-205v205M285 475h225m120 0h225" stroke="#C46A2B" stroke-width="3" stroke-dasharray="7 9" opacity=".65"/><circle cx="570" cy="335" r="48" fill="#FCE8D4" stroke="#C46A2B" stroke-width="3"/><path d="M550 335h40m-20-20v40m-14-14 28-28m-28 0 28 28" stroke="#C46A2B" stroke-width="3" stroke-linecap="round"/><rect x="85" y="630" width="970" height="58" rx="16" fill="#fff" stroke="#F3C49E" stroke-width="2"/><rect x="112" y="649" width="9" height="20" rx="4" fill="#C46A2B"/><text x="139" y="666" font-family="Arial,sans-serif" font-size="18" font-weight="700" fill="#4A2B1B">Multi- tablissements</text><text x="1025" y="666" text-anchor="end" font-family="Arial,sans-serif" font-size="14" fill="#4A2B1B" opacity=".55">REVIEWDEFENSE · 77</text></svg>