<svg xmlns="http://www.w3.org/2000/svg" role="img" aria-labelledby="title desc" width="1140" height="760" viewBox="0 0 1140 760" preserveAspectRatio="xMidYMid meet"><title id="title">Peut-on demander à ses clients de laisser un avis positif ?</title><desc id="desc">Illustration éditoriale dédiée à l’article : Peut-on demander à ses clients de laisser un avis positif ?</desc><rect width="1140" height="760" fill="#F8F5FF"/><rect x="35" y="35" width="1070" height="690" rx="34" fill="#EEE5FF" stroke="#D0B9F4" stroke-width="2"/><path d="M80 590C240 540 300 610 450 550S760 485 1060 560" stroke="#8156C5" stroke-width="3" opacity=".15" fill="none"/><rect x="115" y="145" width="390" height="330" rx="18" fill="#fff" stroke="#8156C5" stroke-width="2.5"/><circle cx="165" cy="195" r="15" fill="#D0B9F4"/><rect x="195" y="188" width="250" height="8" rx="4" fill="#32224D" opacity=".16"/><path d="M150 245h310m-310 25h240m-240 25h280m-280 25h190" stroke="#D0B9F4" stroke-width="8" stroke-linecap="round"/><rect x="610" y="170" width="350" height="265" rx="18" fill="#fff" stroke="#8156C5" stroke-width="2.5"/><path d="M650 375V300l58-45 58 25 53-65 80 42" stroke="#8156C5" stroke-width="5" fill="none" stroke-linecap="round" stroke-linejoin="round"/><circle cx="708" cy="255" r="7" fill="#8156C5"/><circle cx="819" cy="215" r="7" fill="#8156C5"/><circle cx="899" cy="257" r="7" fill="#8156C5"/><path d="M650 395h230" stroke="#D0B9F4" stroke-width="8" stroke-linecap="round"/><rect x="625" y="480" width="90" height="62" rx="12" fill="#EEE5FF" stroke="#D0B9F4" stroke-width="2"/><path d="m648 510 10 10 24-26" stroke="#8156C5" stroke-width="3" fill="none" stroke-linecap="round"/><rect x="737" y="480" width="90" height="62" rx="12" fill="#EEE5FF" stroke="#D0B9F4" stroke-width="2"/><path d="m760 510 10 10 24-26" stroke="#8156C5" stroke-width="3" fill="none" stroke-linecap="round"/><rect x="849" y="480" width="90" height="62" rx="12" fill="#EEE5FF" stroke="#D0B9F4" stroke-width="2"/><path d="m872 510 10 10 24-26" stroke="#8156C5" stroke-width="3" fill="none" stroke-linecap="round"/><rect x="85" y="630" width="970" height="58" rx="16" fill="#fff" stroke="#D0B9F4" stroke-width="2"/><rect x="112" y="649" width="9" height="20" rx="4" fill="#8156C5"/><text x="139" y="666" font-family="Arial,sans-serif" font-size="18" font-weight="700" fill="#32224D">R gles limites</text><text x="1025" y="666" text-anchor="end" font-family="Arial,sans-serif" font-size="14" fill="#32224D" opacity=".55">REVIEWDEFENSE · 79</text></svg>